<svg xmlns="http://www.w3.org/2000/svg" width="12.967" height="13.03" viewBox="0 0 12.967 13.03">
  <path id="ico-shar-whatapp" d="M11.078,1.893A6.458,6.458,0,0,0,.916,9.684L0,13.03l3.423-.9a6.448,6.448,0,0,0,3.085.786h0A6.459,6.459,0,0,0,11.078,1.894ZM6.511,11.827h0a5.36,5.36,0,0,1-2.731-.748l-.2-.116L1.55,11.5l.542-1.98-.128-.2a5.366,5.366,0,1,1,4.546,2.515ZM9.454,7.808c-.161-.081-.954-.471-1.1-.525S8.1,7.2,7.989,7.364s-.417.525-.511.632-.188.121-.35.04a4.411,4.411,0,0,1-1.3-.8,4.862,4.862,0,0,1-.9-1.118C4.84,5.957,4.924,5.87,5,5.79s.161-.189.242-.283a1.1,1.1,0,0,0,.161-.269.3.3,0,0,0-.013-.283c-.04-.081-.363-.875-.5-1.2s-.264-.272-.363-.277-.2-.006-.309-.006a.592.592,0,0,0-.43.2A1.809,1.809,0,0,0,3.23,5.023a3.139,3.139,0,0,0,.659,1.669A7.2,7.2,0,0,0,6.645,9.128a9.253,9.253,0,0,0,.92.34,2.21,2.21,0,0,0,1.016.064,1.662,1.662,0,0,0,1.089-.767A1.35,1.35,0,0,0,9.763,8c-.04-.067-.148-.108-.309-.189Z" fill="#fff" fill-rule="evenodd"/>
</svg>
