<svg xmlns="http://www.w3.org/2000/svg" width="13.439" height="13.441" viewBox="0 0 13.439 13.441">
  <path id="ico-share-link" d="M8.912,10.339,6.688,12.563a3.493,3.493,0,0,1-2.562,1.064,3.491,3.491,0,0,1-2.562-1.063A3.5,3.5,0,0,1,.5,10,3.492,3.492,0,0,1,1.563,7.437L3.787,5.213l.629.629L2.191,8.066a2.743,2.743,0,0,0,0,3.868,2.634,2.634,0,0,0,1.934.8,2.634,2.634,0,0,0,1.934-.8L8.283,9.71ZM5.334,9.42l-.629-.629,4.4-4.4.629.629ZM10.652,8.6l-.629-.629,2.224-2.224a2.634,2.634,0,0,0,.8-1.934,2.634,2.634,0,0,0-.8-1.934,2.743,2.743,0,0,0-3.868,0L6.156,4.1l-.629-.629L7.751,1.249A3.493,3.493,0,0,1,10.314.185a3.491,3.491,0,0,1,2.562,1.063,3.5,3.5,0,0,1,1.064,2.563,3.492,3.492,0,0,1-1.063,2.563Z" transform="translate(-0.5 -0.185)" fill="#fff"/>
</svg>
