<svg xmlns="http://www.w3.org/2000/svg" xmlns:xlink="http://www.w3.org/1999/xlink" width="284.692" height="398.665" viewBox="0 0 284.692 398.665">
  <defs>
    <clipPath id="clip-path">
      <rect id="Rectangle_2490" data-name="Rectangle 2490" width="284.692" height="398.665" fill="#fff"/>
    </clipPath>
  </defs>
  <g id="Group_2505" data-name="Group 2505" transform="translate(0 0)" opacity="0.102">
    <g id="Group_2504" data-name="Group 2504" transform="translate(0 0.001)" clip-path="url(#clip-path)">
      <path id="Path_1057" data-name="Path 1057" d="M284.693,223.236a31.422,31.422,0,0,1-31.382,31.382,30.911,30.911,0,0,1-31.382-28.363,255.658,255.658,0,0,0-25.582-14.49,46.965,46.965,0,0,1-30.982,24.557,351.975,351.975,0,0,0,14.485,97.772,34.975,34.975,0,0,1,18.308,30.378,34.381,34.381,0,0,1-34.563,34.2h-.042a34.043,34.043,0,0,1-34.2-33.888v-.308a27.629,27.629,0,0,1,16.492-29.367,408.517,408.517,0,0,0,5.434-97.772,46.044,46.044,0,0,1-42.045-45.871c0-24.137,1.411-11.663,3.418-16.892a215.474,215.474,0,0,0-64.175-23.737,30.051,30.051,0,0,1-16.293,4.43,31.986,31.986,0,1,1,31.781-32.189c0,.137,0,.271,0,.408v.4a221.511,221.511,0,0,0,54.919,39.63A45.832,45.832,0,0,1,155.1,145.6c14.889,0,12.474,1.411,17.9,3.826a512.99,512.99,0,0,0,45.871-99.775,30.828,30.828,0,0,1-4.222-15.889,33.765,33.765,0,1,1,34.192,33.763L239.642,79c-1.411,1.411-2.415,2.815-3.826,4.43a540.568,540.568,0,0,0-40.438,54.12l-2.049,3.418c-2.044,3.019-3.826,6.229-5.434,9.206l-3.019,6.233A44.662,44.662,0,0,1,201.169,191.2c0,14.077-.4,5.225-.6,7.64a158.718,158.718,0,0,0,28.967,3.418A31.022,31.022,0,0,1,253.269,191.6a31.426,31.426,0,0,1,31.423,31.394Z" transform="translate(-0.001 -0.002)" fill="#fff"/>
    </g>
  </g>
</svg>
