<svg xmlns="http://www.w3.org/2000/svg" xmlns:xlink="http://www.w3.org/1999/xlink" width="188" height="64.486" viewBox="0 0 188 64.486">
  <defs>
    <clipPath id="clip-path">
      <rect id="Rectangle_2342" data-name="Rectangle 2342" width="188" height="64.486" fill="#fff"/>
    </clipPath>
  </defs>
  <g id="HKSTP_logo" data-name="HKSTP logo" transform="translate(0 0)">
    <g id="Group_2293" data-name="Group 2293" transform="translate(0 0)" clip-path="url(#clip-path)">
      <path id="Path_1" data-name="Path 1" d="M132.214,28.441h-23.43V59.668h6.139V49.3h17.322c7.141,0,9.4-2.412,9.4-9.365v-1.5c0-7.737-2.256-9.993-9.4-9.993Zm3.32,11.653c0,3.07-.908,4.142-3.32,4.142H114.893V34.083h17.322c2.412,0,3.32.97,3.32,4.26ZM94.47,59.672H88.332V34.083h-11.4V28.444h28.911v5.638h-11.4V59.673ZM75.238,49.555v1.064c0,6.609-2.756,9.021-10.149,9.021H43.007V54.063H64.675c3.32,0,4.291-1.064,4.291-3.884s-.908-3.6-4.142-3.6H52.138c-7.517,0-9.9-2.63-9.9-8.395V37.148c0-6.233,2.474-8.763,10.055-8.763h21.77v5.638H52.309c-3.006,0-3.884,1.346-3.884,3.884s.846,3.54,3.884,3.54H64.838c7.737,0,10.431,2.536,10.431,8.051ZM65.152,13.53h4.1v-.72H65.84V11.618h3.414v-.752h1.628v.752h3.57v1.19h-3.57v.72h4.26V14.75H65.182V13.53ZM73.7,19.92a1.956,1.956,0,0,1,.846-.319v-1.1a3.631,3.631,0,0,0-1.974.784,2.659,2.659,0,0,1-.782-.784h1.222a1.232,1.232,0,0,0,.532-.126.956.956,0,0,0,.532-.752,3.212,3.212,0,0,0,.062-.72c0-1.19-.344-1.593-1.434-1.593H66.066v3.194h1.753a5.79,5.79,0,0,1-2.85,1.41v1.472a6.351,6.351,0,0,0,3.288-1.566v.22c0,1.534.47,2.162,1.593,2.162a13.512,13.512,0,0,0,1.722-.062V20.766a8.217,8.217,0,0,1-1.252.032c-.344,0-.532-.282-.532-.782v-1.5H70.2a6.656,6.656,0,0,0,3.983,3.226V20.172s-.094,0-.408-.282Zm-6.139-2.536v-.908h4.448c.344,0,.5.094.5.47s-.126.438-.5.438Zm-18.92,5.45a14.21,14.21,0,0,0,3.884-1.378,8.97,8.97,0,0,1-2.13-4.573H52.09a6.131,6.131,0,0,0,1.942,3.6,5.049,5.049,0,0,0,2.35-3.758c0-1.378-.094-.344-.438-.344h-6.11V14.755H52.9V12.061h-3.32V10.369H52.9V8.177h1.786v2.192h4.291v1.692H54.691v2.694h2.1a1.2,1.2,0,0,1,1.338,1.036,1.1,1.1,0,0,1,.008.217,7.011,7.011,0,0,1-2.63,5.481,14.508,14.508,0,0,0,3.728,1.158v1.88a14,14,0,0,1-5.325-1.912,17.941,17.941,0,0,1-5.294,1.974V22.8ZM43.414,24.4V22.709a5.794,5.794,0,0,0,1.284.126c.6,0,.752-.408.752-1.222V18.267a22.592,22.592,0,0,1-2.506.626V16.981c.94-.188,1.722-.408,2.506-.626V12H43.1V10.308h2.35v-2.2h1.786v2.192h1.722V12H47.236v3.79c.532-.188,1.1-.408,1.722-.626v1.753c-.564.25-1.158.5-1.722.72v4.1c0,1.786-.658,2.694-1.942,2.694a10.754,10.754,0,0,1-1.88-.094ZM31.636,11.213V9.521a10.275,10.275,0,0,1,4.228,1.628v2.036a13.017,13.017,0,0,0-4.23-1.972Zm5.012,9.4c-1.692.22-3.505.408-5.544.532V19.329a43.663,43.663,0,0,0,5.544-.5V8.178h1.786V18.483a9.229,9.229,0,0,0,1.346-.282v1.88c-.438.094-.908.188-1.346.25V24.56H36.649Zm-5.137-5.2V13.661a9.7,9.7,0,0,1,4.354,1.88v2a12.725,12.725,0,0,0-4.354-2.162Zm-4.6-2.38h-.653c0,4.416-.159,9.835-.408,11.312H24.253a112.6,112.6,0,0,0,.564-11.312h-.793V11.341h2.912v-1.1c-.846.032-1.722.062-2.63.062V8.679c1.974,0,4.322-.094,7.01-.25v1.66q-1.221.045-2.63.094v1.158h2.882v1.692h-.782c0,2.536.126,7.925.438,11.277H29.658c-.188-2.231-.319-7.611-.319-11.277h-.658V24.592H26.959V13.033Zm47.478,11.4A7.532,7.532,0,0,0,76.7,22.272a9.68,9.68,0,0,0,1.753-5.7,10.153,10.153,0,0,0-.72-3.852,7.342,7.342,0,0,0-1.566-2.536,3.939,3.939,0,0,0-2.506-1.534H62.74V24.523H74.173l.25-.126Zm.72-3.226A4.977,4.977,0,0,1,73.354,22.8H64.492V10.4h8.019a1.863,1.863,0,0,1,1,.188,3.589,3.589,0,0,1,.72.47,5.233,5.233,0,0,1,1.19,1.434,8.189,8.189,0,0,1,1.064,4.1,8.019,8.019,0,0,1-1.378,4.636Z" transform="translate(14.252 4.813)" fill="#fff"/>
      <path id="Path_2" data-name="Path 2" d="M188,34.76a4.892,4.892,0,0,1-4.886,4.886,4.814,4.814,0,0,1-4.886-4.416,39.66,39.66,0,0,0-3.983-2.256A7.314,7.314,0,0,1,169.42,36.8a54.8,54.8,0,0,0,2.256,15.223,5.447,5.447,0,0,1,2.85,4.73,5.353,5.353,0,0,1-5.382,5.325h-.006a5.3,5.3,0,0,1-5.325-5.277v-.048a4.3,4.3,0,0,1,2.568-4.573,63.623,63.623,0,0,0,.846-15.223,7.169,7.169,0,0,1-6.547-7.142c0-3.758.22-1.816.532-2.63a33.517,33.517,0,0,0-9.993-3.7,4.668,4.668,0,0,1-2.536.69,4.981,4.981,0,1,1,4.949-5.012v.126a34.458,34.458,0,0,0,8.551,6.171,7.135,7.135,0,0,1,5.638-2.788c2.318,0,1.942.22,2.788.6a79.893,79.893,0,0,0,7.142-15.536,4.791,4.791,0,0,1-.658-2.474,5.258,5.258,0,1,1,5.325,5.258L180.985,12.3c-.22.22-.376.438-.6.69a84.264,84.264,0,0,0-6.3,8.427l-.319.532a16.565,16.565,0,0,0-.846,1.434l-.47.97a6.954,6.954,0,0,1,2.536,5.417c0,2.192-.062.814-.094,1.19a24.676,24.676,0,0,0,4.51.532,4.829,4.829,0,0,1,3.7-1.66A4.893,4.893,0,0,1,188,34.721Zm-133.374-1.5H46.137L31.854,48.573,45.761,64.485H54.25L40,48.573ZM31.29,64.483H25.213V51.046H6.607V64.483H.593V33.256H6.607V45.941H25.213V33.256H31.29Zm3.7-46.363H32.01V16.24H34.3V14.548H32.01V13.014H30.224v1.534H27.467V13.053H25.681v1.5h-2.13V16.24h2.13v1.88H23.207v1.722h2.231a4.383,4.383,0,0,1-2.231,1.942v1.66a7.478,7.478,0,0,0,1.534-.626V26.2c0,2.162.814,2.912,2.882,2.976,2.256.062,4.385.062,6.641-.062V27.392a64.387,64.387,0,0,1-6.515.062c-.94-.032-1.222-.344-1.222-1.41h4.01c1.912,0,2.506-.564,2.506-2.35s0-.784-.094-1.064a6.665,6.665,0,0,0,2,1V21.784a4.441,4.441,0,0,1-2.536-1.974h2.536V18.088Zm-7.517-1.88h2.756v1.88H27.469Zm3.006,8.207H26.559V22.912h3.916c.6,0,.784.126.784.784s-.22.758-.784.758Zm.094-3.1H26.427a7.838,7.838,0,0,0,.876-1.5h3.164A6.434,6.434,0,0,0,31.6,21.408a5.145,5.145,0,0,0-1.026-.056ZM19.1,15.364V13.515a18.323,18.323,0,0,1,3.57,1.534v2a16.752,16.752,0,0,0-3.562-1.684Zm-.062,4.009v-1.88a18.866,18.866,0,0,1,3.6,1.66v2a16.747,16.747,0,0,0-3.6-1.776Zm-.062,7.111a8.961,8.961,0,0,0,1.88-4.416H22.7a11.8,11.8,0,0,1-3.728,7.267Zm-3.258-9.867H8.981V15.238c2.536-.032,4.51-.126,6.171-.22V13.232c-2.63.22-7.079.319-14.033.319v1.786c2.231,0,4.228,0,6.045-.062V16.59H.03v1.721H3.946A6.748,6.748,0,0,1,0,21.223v1.912a14.291,14.291,0,0,0,1.974-.814v6.824h9.559c1.912,0,2.912-.784,3.006-3.07V24.853c-.094-2.318-1.064-3.07-3.006-3.07H2.889a7.7,7.7,0,0,0,3.038-3.476h1.19v3.07H8.933V18.311h.846a9.5,9.5,0,0,0,5.857,4.918v-2.1a7.268,7.268,0,0,1-3.983-2.818h4.01V16.59Zm-11.933,6.8h7.7a1.142,1.142,0,0,1,1.248,1.028,1.179,1.179,0,0,1,0,.131c0,.032-8.959.032-8.959.032V23.381Zm0,2.788h8.962v.159a1.138,1.138,0,0,1-1.114,1.163,1.008,1.008,0,0,1-.139,0h-7.7Z" transform="translate(0 0)" fill="#fff"/>
    </g>
  </g>
</svg>
